<?xml version="1.0" encoding="UTF-8" standalone="no"?>
<svg
   width="42.000mm"
   height="42.000mm"
   viewBox="-21.000015 -21.000000 42.000015 42.000000"
   version="1.1"
   id="svg16"
   sodipodi:docname="42mm-motor.svg"
   inkscape:version="1.3.2 (091e20e, 2023-11-25)"
   xmlns:inkscape="http://www.inkscape.org/namespaces/inkscape"
   xmlns:sodipodi="http://sodipodi.sourceforge.net/DTD/sodipodi-0.dtd"
   xmlns="http://www.w3.org/2000/svg"
   xmlns:svg="http://www.w3.org/2000/svg">
  <defs
     id="defs16">
    <linearGradient
       id="swatch16"
       inkscape:swatch="solid">
      <stop
         style="stop-color:#000000;stop-opacity:0;"
         offset="0"
         id="stop16" />
    </linearGradient>
    <inkscape:path-effect
       effect="fillet_chamfer"
       id="path-effect16"
       is_visible="true"
       lpeversion="1"
       nodesatellites_param="F,0,0,1,0,3.0923966,0,1 @ F,0,0,1,0,2.9545277,0,1 @ F,0,0,1,0,2.9181682,0,1 @ F,0,0,1,0,3.2398309,0,1"
       radius="0"
       unit="px"
       method="auto"
       mode="F"
       chamfer_steps="1"
       flexible="false"
       use_knot_distance="true"
       apply_no_radius="true"
       apply_with_radius="true"
       only_selected="false"
       hide_knots="false" />
  </defs>
  <sodipodi:namedview
     id="namedview16"
     pagecolor="#ffffff"
     bordercolor="#666666"
     borderopacity="1.0"
     inkscape:showpageshadow="2"
     inkscape:pageopacity="0.0"
     inkscape:pagecheckerboard="0"
     inkscape:deskcolor="#d1d1d1"
     inkscape:document-units="mm"
     inkscape:zoom="4.8049349"
     inkscape:cx="97.920161"
     inkscape:cy="103.53938"
     inkscape:window-width="1440"
     inkscape:window-height="900"
     inkscape:window-x="0"
     inkscape:window-y="0"
     inkscape:window-maximized="0"
     inkscape:current-layer="board"
     showgrid="false" />
  <g
     inkscape:groupmode="layer"
     id="layer1"
     inkscape:label="Layer 1">
    <g
       inkscape:groupmode="layer"
       id="board"
       inkscape:label="board">
      <path
         id="boardoutline"
         style="fill:#006400;fill-opacity:1;fill-rule:evenodd;stroke:none;stroke-width:0.262927;stroke-miterlimit:10;paint-order:markers fill stroke"
         d="M -15.674564 -18.443347 A 3.0923966 3.0923966 0 0 0 -18.766776 -15.351362 L -18.766776 17.628515 A 3.2398309 3.2398309 0 0 0 -15.527292 20.868549 L 17.950486 20.868549 A 2.9181682 2.9181682 0 0 0 20.868427 17.950424 L 20.868427 -15.489184 A 2.9545277 2.9545277 0 0 0 17.914159 -18.443347 L -15.674564 -18.443347 z M -15.664255 -17.083146 C -15.453081 -17.084883 -15.242195 -17.048362 -15.044241 -16.971135 C -14.386593 -16.731251 -13.919278 -16.063418 -13.929395 -15.367433 C -13.929319 -15.195047 -13.955281 -15.022638 -14.006958 -14.858027 C -14.209092 -14.186164 -14.862183 -13.679461 -15.56951 -13.653667 C -16.257308 -13.60916 -16.943349 -14.020322 -17.226806 -14.643259 C -17.527927 -15.264217 -17.397837 -16.057907 -16.911154 -16.550364 C -16.592913 -16.891513 -16.128833 -17.079325 -15.664255 -17.083146 z M 17.657415 -17.083146 C 17.868589 -17.084882 18.079475 -17.048362 18.277429 -16.971135 C 18.935076 -16.731252 19.402392 -16.063417 19.392274 -15.367433 C 19.39235 -15.195047 19.366389 -15.022638 19.314711 -14.858027 C 19.112572 -14.186165 18.459486 -13.679461 17.75216 -13.653667 C 17.064374 -13.609149 16.378303 -14.020311 16.094864 -14.643259 C 15.793742 -15.264227 15.923844 -16.057897 16.410516 -16.550364 C 16.728752 -16.891519 17.192838 -17.079327 17.657415 -17.083146 z M -15.664255 15.973677 C -15.453081 15.97194 -15.242195 16.008461 -15.044241 16.085688 C -14.386591 16.325574 -13.919278 16.993403 -13.929395 17.68939 C -13.929319 17.861776 -13.955281 18.034185 -14.006958 18.198796 C -14.209092 18.870661 -14.862193 19.377362 -15.56951 19.403155 C -16.25731 19.447667 -16.943349 19.036501 -17.226806 18.413564 C -17.527927 17.792593 -17.397837 16.998918 -16.911154 16.506459 C -16.592913 16.16531 -16.128835 15.977498 -15.664255 15.973677 z M 17.657415 15.973677 C 17.868589 15.971941 18.079475 16.008461 18.277429 16.085688 C 18.935078 16.325573 19.402392 16.993404 19.392274 17.68939 C 19.39235 17.861776 19.366389 18.034185 19.314711 18.198796 C 19.11257 18.87066 18.459488 19.377362 17.75216 19.403155 C 17.064372 19.447679 16.378305 19.036501 16.094864 18.413564 C 15.793742 17.792594 15.923844 16.998928 16.410516 16.506459 C 16.728754 16.165304 17.192836 15.977496 17.657415 15.973677 z "
         transform="matrix(1.0526762,0,0,1.0611101,-1.1061836,-1.2833341)" />
    </g>
    <g
       inkscape:groupmode="layer"
       id="silkscreen"
       inkscape:label="silkscreen">
      <path
         id="path19"
         style="fill:none;fill-opacity:0;fill-rule:evenodd;stroke:#fffffb;stroke-width:0.0946177;stroke-miterlimit:10;paint-order:markers fill stroke;stroke-opacity:1;stroke-dasharray:none"
         d="M -15.674564 -18.443347 A 3.0923966 3.0923966 0 0 0 -18.766776 -15.351362 L -18.766776 17.628515 A 3.2398309 3.2398309 0 0 0 -15.527292 20.868549 L 17.950486 20.868549 A 2.9181682 2.9181682 0 0 0 20.868427 17.950424 L 20.868427 -15.489184 A 2.9545277 2.9545277 0 0 0 17.914159 -18.443347 L -15.674564 -18.443347 z M -15.664255 -17.083146 C -15.453081 -17.084883 -15.242195 -17.048362 -15.044241 -16.971135 C -14.386591 -16.731249 -13.919278 -16.06342 -13.929395 -15.367433 C -13.929319 -15.195047 -13.955281 -15.022638 -14.006958 -14.858027 C -14.209092 -14.186162 -14.862181 -13.679461 -15.56951 -13.653667 C -16.25731 -13.609158 -16.943349 -14.020322 -17.226806 -14.643259 C -17.527927 -15.264219 -17.397837 -16.057905 -16.911154 -16.550364 C -16.592913 -16.891513 -16.128835 -17.079325 -15.664255 -17.083146 z M 17.657415 -17.083146 C 17.868589 -17.084882 18.079475 -17.048362 18.277429 -16.971135 C 18.935078 -16.73125 19.402392 -16.063419 19.392274 -15.367433 C 19.39235 -15.195047 19.366389 -15.022638 19.314711 -14.858027 C 19.11257 -14.186163 18.459488 -13.679461 17.75216 -13.653667 C 17.064372 -13.609147 16.378305 -14.020311 16.094864 -14.643259 C 15.793742 -15.264229 15.923844 -16.057895 16.410516 -16.550364 C 16.728754 -16.891519 17.192836 -17.079327 17.657415 -17.083146 z M -15.664255 15.973677 C -15.453081 15.97194 -15.242195 16.008461 -15.044241 16.085688 C -14.386589 16.325576 -13.919278 16.993401 -13.929395 17.68939 C -13.929319 17.861776 -13.955281 18.034185 -14.006958 18.198796 C -14.209092 18.870663 -14.862191 19.377362 -15.56951 19.403155 C -16.257312 19.447667 -16.943349 19.036501 -17.226806 18.413564 C -17.527927 17.792591 -17.397837 16.99892 -16.911154 16.506459 C -16.592913 16.16531 -16.128837 15.977498 -15.664255 15.973677 z M 17.657415 15.973677 C 17.868589 15.971941 18.079475 16.008461 18.277429 16.085688 C 18.93508 16.325575 19.402392 16.993402 19.392274 17.68939 C 19.39235 17.861776 19.366389 18.034185 19.314711 18.198796 C 19.112568 18.870662 18.45949 19.377362 17.75216 19.403155 C 17.06437 19.447679 16.378307 19.036501 16.094864 18.413564 C 15.793742 17.792592 15.923844 16.99893 16.410516 16.506459 C 16.728756 16.165304 17.192834 15.977496 17.657415 15.973677 z "
         transform="matrix(1.0526762,0,0,1.0611101,-1.1061836,-1.2833341)" />
      <path
         style="fill:none;fill-opacity:0;stroke:#fffffb;stroke-width:0.1;stroke-opacity:1;stroke-dasharray:none"
         d="m 4.3845095,-0.0512647 c 0.091167,-1.7506788 -1.1241819,-3.3611829 -2.6798044,-4.0601237 -1.13381416,-0.5367388 -2.51450718,-0.5691085 -3.6336695,0.02498 -2.1711532,0.968265 -3.2360051,3.85914977 -2.1354141,5.9836709 0.566127,1.1616154 1.6621233,2.0291921 2.912581,2.3420767 1.33273377,0.3629389 2.8475038,0.080612 3.8904738,-0.8478279 1.0181438,-0.8279849 1.6888081,-2.116547 1.6458332,-3.4427765 z"
         id="path1" />
      <path
         style="stroke:#fffffb;stroke-width:0.08255;fill:none;fill-opacity:0;stroke-opacity:1;stroke-dasharray:none"
         d="M223.596985,-138.78183C223.596985,-145.221786,218.37677,-150.444656,211.934158,-150.444656C205.491577,-150.444656,200.271332,-145.221786,200.271332,-138.78183C200.271332,-132.341873,205.491577,-127.119003,211.934158,-127.119003C218.37677,-127.119003,223.596985,-132.341873,223.596985,-138.78183z"
         id="path2"
         transform="matrix(1.211387,0,0,1.211387,-256.78567,168.06724)" />
    </g>
  </g>
</svg>
